<?xml version="1.0" encoding="utf-8"?>
<!-- Generator: Adobe Illustrator 21.0.0, SVG Export Plug-In . SVG Version: 6.00 Build 0)  -->
<svg version="1.1" id="レイヤー_1" xmlns="http://www.w3.org/2000/svg" xmlns:xlink="http://www.w3.org/1999/xlink" x="0px"
	 y="0px" viewBox="0 0 50 50" style="enable-background:new 0 0 50 50;" xml:space="preserve">
<style type="text/css">
	.st0{fill:#FFFFFF;}
</style>
<path id="White_2_" class="st0" d="M40.1,8H9.9C8.8,8,8,8.8,8,9.9v30.2c0,1,0.8,1.9,1.9,1.9h16.3V28.8h-4.4v-5.1h4.4v-3.8
	c0-4.4,2.7-6.8,6.6-6.8c1.9,0,3.5,0.1,4,0.2v4.6h-2.7c-2.1,0-2.5,1-2.5,2.5v3.3h5.1L36,28.8h-4.4V42h8.7c1,0,1.9-0.8,1.9-1.9V9.9
	C42,8.8,41.2,8,40.1,8z"/>
</svg>
