<?xml version="1.0" encoding="utf-8"?>
<!-- Generator: Adobe Illustrator 22.0.1, SVG Export Plug-In . SVG Version: 6.00 Build 0)  -->
<svg version="1.1" id="レイヤー_1" xmlns="http://www.w3.org/2000/svg" xmlns:xlink="http://www.w3.org/1999/xlink" x="0px"
	 y="0px" viewBox="0 0 93.2 60.7" style="enable-background:new 0 0 93.2 60.7;" xml:space="preserve">
<style type="text/css">
	.st0{fill:#231815;}
	.st1{fill:#FAED00;}
	.st2{fill:#FFDA3F;}
	.st3{fill:#3071B7;}
	.st4{fill:#2CA6E0;}
	.st5{fill:#C70852;}
	.st6{fill:#F29600;}
</style>
<g>
	<rect x="-0.2" y="34.8" class="st0" width="93.2" height="1.8"/>
	<g>
		<g>
			<g>
				<path class="st0" d="M5.2,10.7v3.1c0,0.5,0,0.7,0.2,0.9c0.2,0.3,0.4,0.4,0.8,0.4c0.4,0,0.7-0.1,0.9-0.5c0.1-0.2,0.1-0.4,0.1-0.8
					v-3.1h0.7v3.1c0,0.7-0.1,1-0.3,1.3c-0.3,0.4-0.7,0.6-1.4,0.6c-0.7,0-1.2-0.2-1.5-0.7c-0.2-0.3-0.2-0.6-0.2-1.2v-3.1H5.2z"/>
				<path class="st0" d="M9.6,14.6c0.2,0.3,0.6,0.5,1.2,0.5c0.7,0,1-0.3,1-0.8c0-0.2-0.1-0.5-0.3-0.6c-0.2-0.1-0.2-0.1-0.9-0.3
					c-1-0.3-1.4-0.7-1.4-1.4c0-0.9,0.6-1.4,1.6-1.4c0.7,0,1.2,0.2,1.5,0.7l-0.6,0.4c-0.2-0.3-0.5-0.4-1-0.4c-0.5,0-0.8,0.3-0.8,0.7
					c0,0.5,0.3,0.7,1.1,0.9c0.7,0.2,0.8,0.2,1,0.4c0.3,0.2,0.5,0.6,0.5,1.1c0,0.9-0.6,1.4-1.7,1.4c-0.8,0-1.4-0.3-1.7-0.8L9.6,14.6z
					"/>
			</g>
			<g>
				<path class="st0" d="M8.9,20.9H5.2v-1.8h6v1.3l-3,9H5.8L8.9,20.9z"/>
			</g>
		</g>
		<g>
			<g>
				<path class="st0" d="M29.9,10.7v3.1c0,0.5,0,0.7,0.2,0.9c0.2,0.3,0.4,0.4,0.8,0.4c0.4,0,0.7-0.1,0.9-0.5
					c0.1-0.2,0.1-0.4,0.1-0.8v-3.1h0.7v3.1c0,0.7-0.1,1-0.3,1.3c-0.3,0.4-0.7,0.6-1.4,0.6c-0.7,0-1.2-0.2-1.5-0.7
					c-0.2-0.3-0.2-0.6-0.2-1.2v-3.1H29.9z"/>
				<path class="st0" d="M34.1,10.7h0.7v2.5l1.9-2.5h0.9l-1.6,2l1.7,2.9h-0.9l-1.4-2.4l-0.7,0.8v1.6h-0.7V10.7z"/>
			</g>
			<g>
				<path class="st0" d="M27.3,27.7h-4.1v-1.3l3.2-7.3h2.4l-3,6.8h1.6v-2.3h2v2.3h0.9v1.8h-0.9v1.8h-2V27.7z"/>
				<path class="st0" d="M32.1,20.6l-1,0.4l-0.4-1.2l2-0.7h1.1v6.2h-1.7V20.6z M36.7,19.1h2l-3.3,10.4h-2L36.7,19.1z M38.1,28.4
					l1.8-2c0.5-0.6,0.8-1.2,0.8-1.5c0-0.3-0.2-0.5-0.5-0.5c-0.4,0-0.6,0.3-0.7,0.8L38,25.1c0.1-0.7,0.2-1.1,0.5-1.4
					c0.4-0.4,1-0.6,1.8-0.6c1.4,0,2.1,0.6,2.1,1.8c0,0.5-0.1,0.9-0.4,1.4c-0.2,0.3-0.2,0.3-0.9,1.1l-0.6,0.7h2v1.3h-4.3V28.4z"/>
			</g>
		</g>
		<g>
			<g>
				<path class="st0" d="M51.8,10.7h3v0.6h-2.2v1.5h1.9v0.6h-1.9V15h2.2v0.6h-3V10.7z"/>
				<path class="st0" d="M56.7,10.7v3.1c0,0.5,0,0.7,0.2,0.9c0.2,0.3,0.4,0.4,0.8,0.4c0.4,0,0.7-0.1,0.9-0.5
					c0.1-0.2,0.1-0.4,0.1-0.8v-3.1h0.7v3.1c0,0.7-0.1,1-0.3,1.3c-0.3,0.4-0.7,0.6-1.4,0.6c-0.7,0-1.2-0.2-1.5-0.7
					C56,14.8,56,14.5,56,13.8v-3.1H56.7z"/>
				<path class="st0" d="M61.7,15.6h-0.7v-4.9h1.8c0.6,0,1,0.1,1.2,0.4c0.2,0.2,0.4,0.6,0.4,1c0,0.8-0.3,1.2-1,1.4l1.1,2.1h-0.8
					l-1-2.1h-0.9V15.6z M62.7,13c0.6,0,0.9-0.3,0.9-0.8c0-0.6-0.3-0.8-0.9-0.8h-1V13H62.7z"/>
			</g>
			<g>
				<path class="st0" d="M52.4,23.1h0.8c0.9,0,1.4-0.4,1.4-1.2c0-0.8-0.3-1.2-1-1.2c-0.6,0-1,0.4-1.1,1.1l-2-0.1
					c0.1-1.9,1.2-2.8,3.2-2.8c2,0,3.1,1,3.1,2.9c0,1.1-0.3,1.7-1,2.2c1,0.6,1.3,1.3,1.3,2.5c0,2.1-1.1,3.1-3.3,3.1
					c-1.4,0-2.4-0.4-2.9-1.1c-0.4-0.5-0.5-0.9-0.6-1.8l2.1-0.2c0.1,0.9,0.5,1.3,1.3,1.3c0.8,0,1.2-0.5,1.2-1.4c0-1-0.6-1.6-1.5-1.6
					h-0.9V23.1z"/>
				<path class="st0" d="M58.9,21.9c0-2.1,0.9-3,3.1-3c2.1,0,3,0.9,3,3c0,0.9-0.2,1.5-0.7,2c0.7,0.5,1,1.2,1,2.4
					c0,1.2-0.2,1.9-0.8,2.4c-0.6,0.6-1.3,0.8-2.6,0.8c-2.4,0-3.4-0.9-3.4-3.2c0-1.2,0.3-1.9,1-2.4C59.1,23.4,58.9,22.8,58.9,21.9z
					 M60.8,26.4c0,1.1,0.3,1.4,1.1,1.4c0.9,0,1.2-0.3,1.2-1.4c0-1.1-0.3-1.5-1.1-1.5C61.1,24.9,60.8,25.3,60.8,26.4z M61,21.9
					c0,1,0.2,1.3,1,1.3c0.7,0,1-0.3,1-1.3c0-1-0.2-1.3-1-1.3C61.2,20.6,61,20.9,61,21.9z"/>
			</g>
		</g>
		<g>
			<g>
				<path class="st0" d="M81.2,15.1c-0.3,0.4-0.7,0.6-1.3,0.6c-1,0-1.4-0.5-1.4-1.7v-0.3c0-1.2,0.4-1.7,1.4-1.7c0.6,0,1,0.2,1.2,0.6
					L80.6,13c-0.2-0.3-0.4-0.4-0.6-0.4c-0.5,0-0.8,0.3-0.8,1.1v0.4c0,0.7,0.3,1,0.8,1c0.3,0,0.5-0.1,0.7-0.3L81.2,15.1z"/>
				<path class="st0" d="M82.2,12.1h0.5l0.1,0.3c0.2-0.3,0.5-0.4,0.9-0.4c0.5,0,0.8,0.2,1,0.5c0.2-0.4,0.5-0.5,1-0.5
					c0.6,0,1,0.2,1.1,0.7c0.1,0.2,0.1,0.5,0.1,0.9v2h-0.7v-1.9c0-0.7-0.2-1-0.6-1c-0.5,0-0.7,0.3-0.7,1.2v1.8h-0.7v-1.9
					c0-0.8-0.2-1-0.6-1c-0.5,0-0.7,0.3-0.7,1.2v1.8h-0.7V12.1z"/>
			</g>
			<g>
				<path class="st0" d="M75.2,28l2.9-3.5c0.4-0.5,1-1.3,1.2-1.7c0.2-0.4,0.3-0.8,0.3-1.1c0-0.6-0.3-0.9-1-0.9c-0.5,0-0.8,0.2-1,0.6
					c-0.1,0.3-0.2,0.5-0.2,0.8l-2-0.1c0.1-2,1.2-3,3.3-3c2,0,3.1,1,3.1,2.9c0,0.8-0.2,1.5-0.7,2.3c-0.4,0.6-0.4,0.6-1.6,2l-1.4,1.6
					h3.6v1.8h-6.5V28z"/>
				<path class="st0" d="M87.4,27.7h-4.1v-1.3l3.2-7.3h2.4l-3,6.8h1.6v-2.3h2v2.3h0.9v1.8h-0.9v1.8h-2V27.7z"/>
			</g>
		</g>
	</g>
	<g>
		<path class="st0" d="M32.8,40.3h1.2c0.9,0,1.4,0.5,1.4,1.4v0.9c0,1-0.4,1.4-1.4,1.4h-1.2V40.3z M34,43.5c0.7,0,0.9-0.3,0.9-1v-0.8
			c0-0.7-0.3-1-0.9-1h-0.6v2.8H34z"/>
		<path class="st0" d="M36.1,40.3h0.6l0.9,2.9l0.9-2.9h0.6L37.8,44h-0.5L36.1,40.3z"/>
		<path class="st0" d="M40,43.2c0.2,0.3,0.5,0.4,0.9,0.4c0.5,0,0.8-0.2,0.8-0.6c0-0.2-0.1-0.3-0.2-0.4c-0.1-0.1-0.1-0.1-0.7-0.2
			c-0.8-0.2-1.1-0.5-1.1-1.1c0-0.7,0.4-1,1.2-1c0.5,0,0.9,0.2,1.1,0.5L41.6,41c-0.2-0.2-0.4-0.3-0.7-0.3c-0.4,0-0.6,0.2-0.6,0.6
			c0,0.3,0.2,0.5,0.8,0.7c0.5,0.1,0.6,0.2,0.8,0.3c0.2,0.2,0.4,0.4,0.4,0.8c0,0.7-0.5,1.1-1.3,1.1c-0.6,0-1.1-0.2-1.3-0.6L40,43.2z"
			/>
		<path class="st0" d="M43.6,44h-0.6v-3.7h1.2c0.5,0,0.8,0.1,1,0.3c0.2,0.2,0.3,0.5,0.3,0.9c0,0.4-0.1,0.7-0.3,0.9
			c-0.2,0.2-0.5,0.2-0.9,0.2h-0.7V44z M44.3,42.2c0.5,0,0.7-0.2,0.7-0.7c0-0.5-0.2-0.7-0.7-0.7h-0.7v1.4H44.3z"/>
		<path class="st0" d="M46.4,41.9H48v0.5h-1.5V41.9z"/>
		<path class="st0" d="M48.9,41.6c0-0.5,0.1-0.8,0.2-1c0.2-0.2,0.5-0.4,0.8-0.4c0.4,0,0.7,0.1,0.9,0.4c0.1,0.2,0.2,0.5,0.2,1v1
			c0,0.5-0.1,0.8-0.2,1C50.7,43.9,50.4,44,50,44c-0.4,0-0.7-0.1-0.9-0.4c-0.1-0.2-0.2-0.5-0.2-1V41.6z M50.6,41.7c0-0.7-0.2-1-0.5-1
			c-0.4,0-0.5,0.3-0.5,1v0.9c0,0.7,0.2,1,0.5,1c0.4,0,0.5-0.3,0.5-1V41.7z"/>
		<path class="st0" d="M51.9,43.6l1-1.3c0.4-0.5,0.5-0.8,0.5-1.2c0-0.3-0.2-0.5-0.5-0.5c-0.3,0-0.5,0.2-0.6,0.5l-0.5,0
			c0-0.6,0.4-0.9,1.1-0.9c0.6,0,1,0.3,1,1c0,0.3-0.1,0.5-0.2,0.8c-0.1,0.2-0.1,0.2-0.5,0.7l-0.7,0.8h1.4V44h-2.1V43.6z"/>
		<path class="st0" d="M55,41.6c0-0.5,0.1-0.8,0.2-1c0.2-0.2,0.5-0.4,0.8-0.4c0.4,0,0.7,0.1,0.9,0.4c0.1,0.2,0.2,0.5,0.2,1v1
			c0,0.5-0.1,0.8-0.2,1c-0.2,0.3-0.5,0.4-0.9,0.4c-0.4,0-0.7-0.1-0.9-0.4c-0.1-0.2-0.2-0.5-0.2-1V41.6z M56.6,41.7
			c0-0.7-0.2-1-0.5-1c-0.4,0-0.5,0.3-0.5,1v0.9c0,0.7,0.2,1,0.5,1c0.4,0,0.5-0.3,0.5-1V41.7z"/>
		<path class="st0" d="M58.9,40.9l-0.6,0.3l-0.2-0.4l1-0.4h0.4V44h-0.6V40.9z"/>
	</g>
	<g>
		<path class="st0" d="M25.3,50.5h0.7l1.1,2.4l1.1-2.4H29v4.1h-0.7v-2.7l-0.9,1.8h-0.5l-0.9-1.8v2.7h-0.7V50.5z"/>
		<path class="st0" d="M30.9,53.8l-0.3,0.8h-0.8l1.5-4.1H32l1.5,4.1h-0.8l-0.3-0.8H30.9z M31.7,51.4l-0.6,1.8h1.2L31.7,51.4z"/>
		<path class="st0" d="M34.3,50.5h1.4c1.1,0,1.6,0.5,1.6,1.6V53c0,1.1-0.5,1.6-1.6,1.6h-1.4V50.5z M35.6,54c0.7,0,0.9-0.2,0.9-1
			v-0.8c0-0.8-0.2-1.1-0.9-1H35V54H35.6z"/>
		<path class="st0" d="M38.3,50.5h2.5v0.6h-1.8v1.1h1.5v0.6h-1.5V54h1.8v0.6h-2.5V50.5z"/>
		<path class="st0" d="M42.8,50.5h0.8v4.1h-0.8V50.5z"/>
		<path class="st0" d="M44.7,50.5h0.7l1.6,2.8v-2.8h0.7v4.1h-0.7l-1.6-2.8v2.8h-0.7V50.5z"/>
		<path class="st0" d="M51.7,50.5V53c0,0.7,0,0.9-0.1,1.2c-0.2,0.3-0.5,0.5-1,0.5c-0.5,0-0.8-0.1-1.2-0.5l0.4-0.5
			c0.2,0.3,0.5,0.4,0.7,0.4c0.2,0,0.4-0.1,0.5-0.4c0-0.1,0.1-0.3,0.1-0.7v-2.5H51.7z"/>
		<path class="st0" d="M53.5,53.8l-0.3,0.8h-0.8l1.5-4.1h0.7l1.5,4.1h-0.8L55,53.8H53.5z M54.2,51.4l-0.6,1.8h1.2L54.2,51.4z"/>
		<path class="st0" d="M57.6,54.6h-0.8v-4.1h1.4c0.6,0,0.9,0.1,1.1,0.3c0.2,0.2,0.3,0.5,0.3,1c0,0.5-0.1,0.8-0.4,1
			c-0.2,0.2-0.5,0.3-1,0.3h-0.6V54.6z M58.2,52.5c0.5,0,0.7-0.2,0.7-0.7c0-0.5-0.2-0.7-0.7-0.7h-0.6v1.4H58.2z"/>
		<path class="st0" d="M61,53.8l-0.3,0.8h-0.8l1.5-4.1h0.7l1.5,4.1h-0.8l-0.3-0.8H61z M61.7,51.4l-0.6,1.8h1.2L61.7,51.4z"/>
		<path class="st0" d="M64.4,50.5h0.7l1.6,2.8v-2.8h0.7v4.1h-0.7l-1.6-2.8v2.8h-0.7V50.5z"/>
	</g>
	<g>
		<path class="st0" d="M0.1,41.6c0-0.5,0.1-0.8,0.2-1c0.2-0.2,0.5-0.4,0.8-0.4c0.4,0,0.7,0.1,0.9,0.4c0.1,0.2,0.2,0.5,0.2,1v1
			c0,0.5-0.1,0.8-0.2,1C1.8,43.9,1.6,44,1.2,44c-0.4,0-0.7-0.1-0.9-0.4c-0.1-0.2-0.2-0.5-0.2-1V41.6z M1.7,41.7c0-0.7-0.2-1-0.5-1
			c-0.4,0-0.5,0.3-0.5,1v0.9c0,0.7,0.2,1,0.5,1c0.4,0,0.5-0.3,0.5-1V41.7z"/>
		<path class="st0" d="M3.3,41.3c0-0.7,0.3-1,1-1s1,0.3,1,1c0,0.4-0.1,0.6-0.3,0.8c0.3,0.2,0.4,0.4,0.4,0.9C5.4,43.7,5,44,4.3,44
			c-0.8,0-1.1-0.3-1.1-1.1c0-0.5,0.1-0.7,0.4-0.9C3.3,41.8,3.3,41.6,3.3,41.3z M3.7,42.9c0,0.5,0.2,0.7,0.6,0.7
			c0.4,0,0.6-0.2,0.6-0.7c0-0.5-0.2-0.7-0.6-0.7C3.9,42.3,3.7,42.5,3.7,42.9z M3.8,41.3c0,0.4,0.1,0.6,0.5,0.6
			c0.3,0,0.5-0.2,0.5-0.6c0-0.4-0.2-0.6-0.5-0.6C3.9,40.7,3.8,40.8,3.8,41.3z"/>
		<path class="st0" d="M7.3,40.2h0.5l-1.2,3.9H6.1L7.3,40.2z"/>
		<path class="st0" d="M9.4,40.9l-0.6,0.3l-0.2-0.4l1-0.4H10V44H9.4V40.9z"/>
		<path class="st0" d="M11.3,41.6c0-0.5,0.1-0.8,0.2-1c0.2-0.2,0.5-0.4,0.8-0.4c0.4,0,0.7,0.1,0.9,0.4c0.1,0.2,0.2,0.5,0.2,1v1
			c0,0.5-0.1,0.8-0.2,1C13,43.9,12.8,44,12.4,44c-0.4,0-0.7-0.1-0.9-0.4c-0.1-0.2-0.2-0.5-0.2-1V41.6z M12.9,41.7c0-0.7-0.2-1-0.5-1
			c-0.4,0-0.5,0.3-0.5,1v0.9c0,0.7,0.2,1,0.5,1c0.4,0,0.5-0.3,0.5-1V41.7z"/>
		<path class="st0" d="M15.4,40.2h0.5l-1.2,3.9h-0.5L15.4,40.2z"/>
		<path class="st0" d="M17.5,40.9l-0.6,0.3l-0.2-0.4l1-0.4h0.4V44h-0.6V40.9z"/>
		<path class="st0" d="M19.4,41.3c0-0.7,0.3-1,1-1c0.7,0,1,0.3,1,1c0,0.4-0.1,0.6-0.3,0.8c0.3,0.2,0.4,0.4,0.4,0.9
			c0,0.8-0.3,1.1-1.1,1.1c-0.8,0-1.1-0.3-1.1-1.1c0-0.5,0.1-0.7,0.4-0.9C19.5,41.8,19.4,41.6,19.4,41.3z M19.9,42.9
			c0,0.5,0.2,0.7,0.6,0.7c0.4,0,0.6-0.2,0.6-0.7c0-0.5-0.2-0.7-0.6-0.7C20,42.3,19.9,42.5,19.9,42.9z M20,41.3
			c0,0.4,0.1,0.6,0.5,0.6c0.3,0,0.5-0.2,0.5-0.6c0-0.4-0.2-0.6-0.5-0.6C20.1,40.7,20,40.8,20,41.3z"/>
	</g>
	<g>
		<path class="st0" d="M73.8,43.2c0.2,0.3,0.5,0.4,0.9,0.4c0.5,0,0.8-0.2,0.8-0.6c0-0.2-0.1-0.3-0.2-0.4c-0.1-0.1-0.1-0.1-0.7-0.2
			c-0.8-0.2-1.1-0.5-1.1-1.1c0-0.7,0.4-1,1.2-1c0.5,0,0.9,0.2,1.1,0.5L75.4,41c-0.2-0.2-0.4-0.3-0.7-0.3c-0.4,0-0.6,0.2-0.6,0.6
			c0,0.3,0.2,0.5,0.8,0.7c0.5,0.1,0.6,0.2,0.8,0.3c0.2,0.2,0.4,0.4,0.4,0.8c0,0.7-0.5,1.1-1.3,1.1c-0.6,0-1.1-0.2-1.3-0.6L73.8,43.2
			z"/>
		<path class="st0" d="M77.6,40.7h-1v-0.5h2.6v0.5h-1V44h-0.6V40.7z"/>
		<path class="st0" d="M80.1,40.3h2.2v0.5h-1.7v1.1h1.4v0.5h-1.4v1.2h1.7V44h-2.2V40.3z"/>
		<path class="st0" d="M83.9,44h-0.6v-3.7h1.3c0.5,0,0.7,0.1,0.9,0.3c0.2,0.2,0.3,0.4,0.3,0.8c0,0.6-0.2,0.9-0.7,1l0.8,1.6h-0.6
			l-0.7-1.6h-0.7V44z M84.6,42c0.4,0,0.6-0.2,0.6-0.6c0-0.4-0.2-0.6-0.7-0.6h-0.7V42H84.6z"/>
		<path class="st0" d="M86.9,40.3h2.2v0.5h-1.7v1.1h1.4v0.5h-1.4v1.2h1.7V44h-2.2V40.3z"/>
		<path class="st0" d="M89.9,41.7c0-0.5,0.1-0.8,0.3-1.1c0.2-0.3,0.6-0.4,1-0.4c0.5,0,0.8,0.1,1.1,0.4c0.2,0.2,0.3,0.5,0.3,1v0.9
			c0,0.5-0.1,0.8-0.3,1.1c-0.2,0.3-0.6,0.4-1,0.4c-0.5,0-0.9-0.1-1.1-0.4c-0.2-0.2-0.3-0.5-0.3-1V41.7z M92,41.7
			c0-0.7-0.2-1.1-0.8-1.1c-0.5,0-0.8,0.3-0.8,1.1v0.8c0,0.7,0.2,1.1,0.8,1.1c0.5,0,0.8-0.3,0.8-1.1V41.7z"/>
	</g>
	<g>
		<rect x="46.3" y="0.2" class="st1" width="15.6" height="6.1"/>
		<rect x="-0.2" y="0.2" class="st2" width="15.6" height="6.1"/>
		<rect x="15.4" y="0.2" class="st3" width="15.6" height="6.1"/>
		<rect x="30.8" y="0.2" class="st4" width="15.6" height="6.1"/>
		<rect x="61.9" y="0.2" class="st5" width="15.6" height="6.1"/>
		<g>
			<rect x="77.5" y="0.2" class="st6" width="15.6" height="6.1"/>
		</g>
	</g>
</g>
<rect x="-0.2" y="59" class="st0" width="93.2" height="1.8"/>
</svg>
