<?xml version="1.0" encoding="utf-8"?>
<!-- Generator: Adobe Illustrator 15.0.0, SVG Export Plug-In . SVG Version: 6.00 Build 0)  -->
<!DOCTYPE svg PUBLIC "-//W3C//DTD SVG 1.1//EN" "http://www.w3.org/Graphics/SVG/1.1/DTD/svg11.dtd">
<svg version="1.1" id="レイヤー_1" xmlns="http://www.w3.org/2000/svg" xmlns:xlink="http://www.w3.org/1999/xlink" x="0px"
	 y="0px" width="30.5px" height="30.109px" viewBox="0 84.893 30.5 30.109" enable-background="new 0 84.893 30.5 30.109"
	 xml:space="preserve">
	 <a xlink:href="http://diverse.jp">
<path fill="#000000" d="M14.375,115.002h1.359v-10.977h-1.359V115.002z M15.578,84.893h-0.993V95.87h0.993V84.893z M10.978,98.798H0
	v2.353h10.978V98.798z M19.132,99.111v1.725H30.11v-1.725H19.132z M11.657,102.3l-7.789,7.789l1.098,1.098l7.789-7.788L11.657,102.3
	z M18.609,97.7l7.737-7.736l-1.255-1.307l-7.789,7.789L18.609,97.7z M12.389,96.864L4.6,89.127l-0.366,0.366l7.789,7.789
	L12.389,96.864z M17.355,103.45l7.789,7.788l1.203-1.201l-7.789-7.789L17.355,103.45z M16.205,103.868l4.234,10.142l0.784-0.314
	l-4.182-10.141L16.205,103.868z M8.677,86.304l4.182,10.141l1.254-0.522L9.932,85.781L8.677,86.304z M11.187,101.307l-10.141,4.182
	l0.209,0.471l10.141-4.182L11.187,101.307z M19.028,98.85l10.141-4.182l-0.366-0.941l-10.141,4.234L19.028,98.85z M9.096,113.801
	l0.366,0.156l4.234-10.141l-0.418-0.157L9.096,113.801z M21.066,86.147l-0.471-0.209L16.414,96.08l0.418,0.157L21.066,86.147z
	 M11.343,98.275L1.202,94.093l-0.104,0.209l10.141,4.182L11.343,98.275z M18.766,101.673l10.141,4.182l0.157-0.313l-10.141-4.182
	L18.766,101.673z"/>
</a>
</svg>
