<?xml version="1.0" encoding="utf-8"?>
<!-- Generator: Adobe Illustrator 22.0.1, SVG Export Plug-In . SVG Version: 6.00 Build 0)  -->
<svg version="1.1" id="レイヤー_1" xmlns="http://www.w3.org/2000/svg" xmlns:xlink="http://www.w3.org/1999/xlink" x="0px"
	 y="0px" viewBox="0 0 292.3 109.8" style="enable-background:new 0 0 292.3 109.8;" xml:space="preserve">
<style type="text/css">
	.st0{fill:#FFFFFF;}
	.st1{fill:none;}
	.st2{fill:#FF8B00;}
	.st3{fill:#0067C4;}
	.st4{fill:#FFE600;}
	.st5{fill:#FAED00;}
	.st6{fill:#00A8FF;}
	.st7{fill:#2CA6E0;}
	.st8{fill:#CE004F;}
	.st9{fill:#FFCE00;}
	.st10{fill:#1EAA39;}
</style>
<rect x="0.7" y="96.5" class="st0" width="292" height="11.5"/>
<g>
	<g>
		<g>
			<path class="st1" d="M195,43.9h6.9c7,0,13.7-5.7,14.9-12.7c1.2-7-3.4-12.7-10.5-12.7h-11.4c1.8,3.9,2.8,8.2,2.8,12.7
				C197.7,35.7,196.7,40,195,43.9z"/>
			<path class="st1" d="M217.2,57l1.9,4.2c0.4-0.3,0.9-0.6,1.4-0.9c4.8-3,11.1-4.4,18.9-4.4c1.4,0,3,0.1,4.7,0.3
				c1.7,0.2,3.5,0.5,5.4,0.9l-2.2,10.5c-1.7-0.3-3.3-0.5-4.8-0.6c-1.5-0.1-3-0.2-4.4-0.2c-3.6,0-6.5,0.5-8.8,1.4
				c-2.3,0.9-3.4,2-3.4,3.3c0,1.6,1.5,2.8,4.4,3.7c2.9,0.9,6.9,1.4,12,1.4c7.6,0,13.8-1.1,18.5-3.3c4.7-2.2,7.1-5.1,7.1-8.6
				c0-3.4-4.5-7.4-13.4-11.9c-1.4-0.7-2.5-1.3-3.2-1.6c-5-2.6-8.7-5.5-11.2-8.8c-2.5-3.3-3.7-6.9-3.7-11c0-0.5,0-1,0.1-1.4
				c-0.1,0.4-0.1,0.8-0.2,1.2C234.2,42.1,226.7,51.6,217.2,57z"/>
			<path class="st1" d="M189.2,10.1l1.3-7.4l0.3-2h-23.5C176,0.8,183.7,4.4,189.2,10.1z"/>
			<path class="st1" d="M137.9,22.3l0.5-0.5c0.4-1.2,0.9-2.4,1.4-3.6l-2,2V22.3z"/>
			<path class="st1" d="M73.6,32.4c0.6,7.1,6.6,12.8,13.9,12.8c7.7,0,14-6.3,14-14s-6.3-14-14-14c-7.3,0-13.3,5.6-13.9,12.8
				c0.2,0.3,0.4,0.8,0.4,1.2C73.9,31.6,73.8,32,73.6,32.4z"/>
			<g>
				<path class="st2" d="M287,3.3c-2.8-2.2-6.6-3.3-11.3-3.3c-3.8,0-7.8,0.7-12.1,2.2c-4.3,1.5-8.4,3.5-12.2,6
					c-4.6,3.1-8.3,6.8-11,10.9c-2.1,3.3-3.4,6.5-3.9,9.7c0,0.4-0.1,0.8-0.1,1.1c0,0.5-0.1,1-0.1,1.4c0,4,1.2,7.7,3.7,11
					c2.5,3.3,6.2,6.2,11.2,8.8c0.7,0.4,1.8,0.9,3.2,1.6c8.9,4.5,13.4,8.5,13.4,11.9c0,3.5-2.4,6.4-7.1,8.6
					c-4.7,2.2-10.9,3.3-18.5,3.3c-5,0-9-0.5-12-1.4c-2.9-0.9-4.4-2.2-4.4-3.7c0-1.3,1.1-2.4,3.4-3.3c2.3-0.9,5.2-1.4,8.8-1.4
					c1.4,0,2.9,0.1,4.4,0.2c1.5,0.1,3.1,0.3,4.8,0.6l2.2-10.5c-1.9-0.4-3.7-0.7-5.4-0.9c-1.7-0.2-3.2-0.3-4.7-0.3
					c-7.8,0-14.1,1.5-18.9,4.4c-0.5,0.3-1,0.6-1.4,0.9l11.7,25.5c3,0.5,6.3,0.8,10,0.8c12.1,0,21.6-2.1,28.6-6.4
					c7-4.3,10.5-10,10.5-17.3c0-3.7-1-7-3.1-10c-2.1-3-5.1-5.5-9-7.5c-1.4-0.7-3.3-1.6-5.8-2.8c-9.1-4.3-13.6-8.6-13.6-13.1
					c0-2.6,1-5.1,3.1-7.6c2.1-2.5,5.1-4.9,9.2-7.1c2.6-1.4,5.3-2.6,8.1-3.5c2.8-0.9,5.2-1.3,7.1-1.3c1.2,0,2.1,0.3,3,0.8
					c0.8,0.5,1.2,1.1,1.2,1.8c0,1.7-1.7,3.6-5,5.5c-3.3,2-7.8,3.7-13.3,5.2L259.4,35c9.1-0.8,16.7-3.4,22.7-7.9
					c6.1-4.5,9.1-9.5,9.1-15.1C291.2,8.4,289.8,5.5,287,3.3z"/>
			</g>
			<path class="st3" d="M87.5,0.8c-7.2,0-13.8,2.5-19,6.7c-6.8-4.3-16.7-6.6-25-6.6c-11.6,0-22.4,4.5-30.5,12.6
				C-2.4,28.8-2,53.3,11.2,70.4c0.7,0.9,2,1.1,2.9,0.4c0.9-0.7,1.1-2,0.4-2.9C2.5,52.4,2.8,29.8,16.7,16C24,8.6,35,5,45.5,5
				c7.1,0,13.9,1.9,19.9,5.4c-1.9,2-3.4,4.2-4.7,6.6c0.3,0.2,0.5,0.5,0.6,0.8c2.6,7,4.4,8.8,11.4,11.4c0.4,0.1,0.7,0.4,1,0.7
				c0.6-7.1,6.6-12.8,13.9-12.8c7.7,0,14,6.3,14,14s-6.3,14-14,14c-7.3,0-13.3-5.6-13.9-12.8c-0.2,0.3-0.6,0.6-1,0.7
				c-7,2.6-8.8,4.4-11.4,11.4c-0.1,0.3-0.3,0.6-0.6,0.8c5.1,9.6,15.2,16.2,26.9,16.2c16.4,0,29.8-13.1,30.4-29.4v-2
				C117.3,13.9,103.9,0.8,87.5,0.8z"/>
			<path class="st4" d="M61.2,44.5c2.6-7,4.4-8.8,11.4-11.4c0.4-0.1,0.7-0.4,1-0.7c0.2-0.3,0.4-0.8,0.4-1.2c0-0.4-0.1-0.8-0.4-1.2
				c-0.2-0.3-0.6-0.6-1-0.7c-7-2.6-8.8-4.4-11.4-11.4c-0.1-0.3-0.3-0.6-0.6-0.8c-0.4-0.3-0.8-0.5-1.3-0.5c-0.9,0-1.6,0.5-1.9,1.3
				c-1,2.9-2,4.9-3.2,6.4c-2.7-1.2-5.7-1.8-8.7-1.8c0,0-0.1,0-0.1,0c-5.7,0-11.1,2.3-15.2,6.3c-8.4,8.4-8.4,22.2,0,30.6
				c4.1,4.1,9.5,6.3,15.3,6.3c5.1,0,9.9-1.7,13.8-5l12.4,12.4c-7.2,6.5-16.4,10-26.2,10c-9.2,0-17.8-3.1-24.8-8.9
				c-0.4-0.3-0.8-0.7-1.2-1c-0.8-0.8-2.1-0.7-2.9,0.2c-0.8,0.8-0.7,2.1,0.2,2.9c0.4,0.4,0.9,0.7,1.3,1.1c7.8,6.4,17.3,9.8,27.4,9.8
				c11.5,0,22.4-4.5,30.5-12.7c0.4-0.4,0.6-0.9,0.6-1.5c0-0.5-0.2-1.1-0.6-1.5L60.8,56.5c-0.8-0.8-2.1-0.8-2.9,0
				c-3.3,3.3-7.7,5.1-12.4,5.1c-4.7,0-9.1-1.8-12.4-5.1c-3.3-3.3-5.1-7.7-5.1-12.4c0-4.7,1.8-9.1,5.1-12.4c3.3-3.3,7.7-5.1,12.3-5.1
				c1.8,0,3.5,0.3,5.2,0.7c-1.2,0.7-2.7,1.3-4.6,2c-0.8,0.3-1.3,1.1-1.3,1.9c0,0.9,0.5,1.6,1.3,1.9c7,2.6,8.8,4.4,11.4,11.4
				c0.3,0.8,1.1,1.3,1.9,1.3c0.5,0,1-0.2,1.3-0.5C60.9,45.1,61.1,44.9,61.2,44.5z M51.9,31.2c3.5-1.8,5.6-3.9,7.4-7.4
				c1.8,3.5,3.9,5.6,7.4,7.4c-3.5,1.8-5.6,3.9-7.4,7.4C57.5,35.1,55.4,33,51.9,31.2z"/>
			<polygon class="st5" points="126.9,31.2 129.1,31.2 137.9,22.3 137.9,20.2 			"/>
			<polygon class="st4" points="124.3,32.6 124.3,32.6 124.3,31.6 124.3,31.6 124.3,31.2 124.7,31.2 137.9,18 137.9,15.8 
				124.3,29.4 124.3,27.2 137.9,13.6 137.9,11.4 124.3,25.1 124.3,22.9 137.9,9.3 137.9,7.1 124.3,20.7 124.3,18.5 137.9,4.9 
				137.9,2.7 124.3,16.4 124.3,14.2 137.6,0.8 135.5,0.8 124.3,12 124.3,9.8 133.3,0.8 131.1,0.8 124.3,7.6 124.3,5.4 128.9,0.8 
				126.7,0.8 124.3,3.3 124.3,1.1 124.6,0.8 117.8,0.8 117.8,30.2 117.8,32.2 117.8,86.7 153.2,86.7 153.2,86.7 124.3,86.7 			"/>
			<path class="st4" d="M195,43.9c1.8-3.9,2.8-8.2,2.8-12.7c0-4.5-1-8.8-2.8-12.7c-1.4-3.1-3.4-5.9-5.7-8.3
				c-5.5-5.7-13.3-9.3-21.9-9.3c-9.7,0-18.3,4.5-23.9,11.6l0.9-0.9v2.2l-4.5,4.5c-0.6,1.2-1,2.4-1.4,3.6l5.9-5.9v2.2l-13.1,13.1h2.2
				l11-11v2.2l-8.8,8.8h2.2l6.6-6.6v2.2l-4.4,4.4h2.2l2.2-2.2v2.2l-0.1,0.1h0.1v19.9c5.6,6.4,13.8,10.5,23,10.5
				c4.8,0,9.3-1.1,13.4-3.1C187,55.4,192,50.2,195,43.9z"/>
			<polygon class="st6" points="144.3,31.2 144.4,31.1 144.4,29 142.1,31.2 140,31.2 144.4,26.8 144.4,24.6 137.8,31.2 135.6,31.2 
				144.4,22.4 144.4,20.2 133.4,31.2 131.2,31.2 144.4,18.1 144.4,15.9 138.5,21.8 137.9,22.3 129.1,31.2 126.9,31.2 137.9,20.2 
				139.9,18.2 144.4,13.7 144.4,11.5 143.5,12.4 137.9,18 124.7,31.2 124.3,31.2 124.3,31.6 124.3,31.6 124.3,32.6 124.3,32.6 
				124.3,86.7 153.2,86.7 159.7,86.7 159.7,70.1 144.4,70.1 144.4,51.1 144.4,31.2 			"/>
			<polygon class="st6" points="144.4,2.8 137.9,9.3 124.3,22.9 124.3,25.1 137.9,11.4 144.4,5 			"/>
			<polygon class="st6" points="144.4,7.2 137.9,13.6 124.3,27.2 124.3,29.4 137.9,15.8 144.4,9.3 			"/>
			<polygon class="st7" points="124.3,1.1 124.3,3.3 126.7,0.8 124.6,0.8 			"/>
			<polygon class="st6" points="142,0.8 137.9,4.9 124.3,18.5 124.3,20.7 137.9,7.1 144.2,0.8 			"/>
			<polygon class="st7" points="124.3,5.4 124.3,7.6 131.1,0.8 128.9,0.8 			"/>
			<polygon class="st7" points="137.6,0.8 124.3,14.2 124.3,16.4 137.9,2.7 139.8,0.8 			"/>
			<polygon class="st7" points="124.3,9.8 124.3,12 135.5,0.8 133.3,0.8 			"/>
			<path class="st8" d="M217.2,57c9.6-5.4,17-14.9,18.9-25.8c0.1-0.4,0.1-0.8,0.2-1.2c0.1-0.4,0.1-0.8,0.1-1.1
				c1.5-15.5-9.1-27.7-24.7-28h-20.8l-0.3,2l-1.3,7.4c2.3,2.4,4.3,5.2,5.7,8.3h11.4c7,0,11.7,5.7,10.5,12.7
				c-1.2,7-7.9,12.7-14.9,12.7H195c-2.9,6.3-8,11.5-14.2,14.6l-0.2,1.1l-4.8,27.1h20.2l3.6-20.7l0.8-4.5c0.1,0,0.2,0,0.3,0l1.6,4.5
				l7.5,20.7h21l0,0l-11.7-25.5L217.2,57z"/>
		</g>
	</g>
</g>
<g>
	<path class="st3" d="M8.6,105.9H4.1l-0.8,1.9H1l4.8-11.1h1l5,11.1H9.4L8.6,105.9z M7.9,104.2l-1.4-3.1l-0.3-0.7l-0.2,0.7l-1.3,3.1
		H7.9z"/>
	<path class="st9" d="M27,102.1c0,3.6-2.4,5.7-6.3,5.7c-2.1,0-3.3,0-3.8,0v-11c1-0.1,2.2-0.2,4-0.2C24.8,96.6,27,98.7,27,102.1z
		 M24.6,102.2c0-2.3-1.5-3.5-3.7-3.5c-0.9,0-1.2,0-1.6,0.1v6.9c0.5,0,0.9,0,1.7,0C23.4,105.7,24.6,104.5,24.6,102.2z"/>
	<path class="st10" d="M32.3,100.5c0-0.7,0.4-1.2,1.3-1.2s1.3,0.6,1.3,1.2c0,0.7-0.4,1.2-1.3,1.2S32.3,101.1,32.3,100.5z
		 M32.3,106.8c0-0.7,0.4-1.2,1.3-1.2s1.3,0.6,1.3,1.2c0,0.7-0.4,1.2-1.3,1.2S32.3,107.4,32.3,106.8z"/>
	<path class="st8" d="M50.5,96.7v11.1h-2.3v-4.5h-5v4.5h-2.4V96.7h2.4v4.4h5v-4.4H50.5z"/>
	<g>
		<g>
			<path class="st2" d="M56.2,102.3c0-3.6,2.5-5.8,5.8-5.8c3,0,5.8,2,5.8,5.8c0,3.6-2.5,5.7-5.8,5.7C59,108,56.2,106,56.2,102.3z
				 M65.4,102.3c0-2.3-1.4-3.7-3.4-3.7c-2,0-3.4,1.4-3.4,3.7c0,2.3,1.4,3.6,3.4,3.6C64,105.9,65.4,104.5,65.4,102.3z"/>
		</g>
	</g>
	<path class="st7" d="M73.4,103.4v-6.7h2.3v6.4c0,1.9,0.9,2.9,2.5,2.9c1.6,0,2.4-1,2.4-2.9v-6.4h2.3v6.7c0,2.9-1.7,4.6-4.7,4.6
		C75.1,108,73.4,106.4,73.4,103.4z"/>
	<path class="st10" d="M88.6,107.2V105l0,0c0.9,0.6,1.8,1,3,1c1.1,0,1.8-0.5,1.8-1.3c0-0.7-0.4-1.2-2-1.8c-1.4-0.6-2.8-1.4-2.8-3.2
		c0-2.2,1.8-3.2,3.8-3.2c1.4,0,2.2,0.2,2.9,0.5V99l0,0c-0.7-0.4-1.6-0.6-2.5-0.6c-1.1,0-1.8,0.3-1.8,1c0,0.7,0.8,1,2,1.6
		c1.5,0.7,2.7,1.6,2.7,3.5c0,2.1-1.6,3.4-3.9,3.4C90.3,108,89.4,107.7,88.6,107.2z"/>
	<path class="st3" d="M108.9,105.8v2h-7.2V96.7h7.1v2H104v2.5h4.4v1.9H104v2.7H108.9z"/>
</g>
<g>
	<g>
		<path class="st8" d="M134.1,96.8l-4.6,11.1H128l-4.5-11.1l0-0.1h2.5l2.6,7.1l0.2,0.9l0.2-0.9l2.7-7.1L134.1,96.8L134.1,96.8z"/>
		<path class="st8" d="M138,102.3c0-3.6,2.5-5.8,5.8-5.8c3,0,5.8,2,5.8,5.8c0,3.6-2.5,5.7-5.8,5.7C140.8,108,138,106,138,102.3z
			 M147.2,102.3c0-2.3-1.4-3.7-3.4-3.7c-2,0-3.4,1.4-3.4,3.7c0,2.3,1.4,3.6,3.4,3.6C145.8,105.9,147.2,104.5,147.2,102.3z"/>
		<path class="st8" d="M154.7,102.4c0-3.7,2.4-5.9,5.9-5.9c1.1,0,2,0.1,3,0.5v2.2l0,0c-0.8-0.4-1.6-0.6-2.6-0.6
			c-2.4,0-3.8,1.4-3.8,3.6c0,2.3,1.4,3.6,3.8,3.6c1,0,1.7-0.2,2.5-0.5l0,0v2.1c-0.8,0.3-1.8,0.5-2.9,0.5
			C157.2,108,154.7,105.9,154.7,102.4z"/>
		<path class="st8" d="M175.9,105.9h-4.5l-0.8,1.9h-2.3l4.8-11.1h1l5,11.1h-2.4L175.9,105.9z M175.2,104.2l-1.4-3.1l-0.3-0.7
			l-0.2,0.7l-1.3,3.1H175.2z"/>
		<path class="st8" d="M191.1,105.8v2h-6.9V96.7h2.4v9.1H191.1z"/>
		<path class="st8" d="M212.5,107.7L212.5,107.7l-2.5,0.1l-2.3-3.8h-1.2v3.8h-2.3V96.7c1.1-0.1,2-0.1,3.4-0.1c2.5,0,4.6,0.9,4.6,3.6
			c0,1.8-0.9,2.9-2.1,3.4L212.5,107.7z M206.4,102.2h1.1c1.2,0,2.1-0.6,2.1-1.8c0-1.2-0.7-1.8-2-1.8c-0.5,0-1,0-1.3,0V102.2z"/>
		<path class="st8" d="M225.2,105.8v2H218V96.7h7.1v2h-4.7v2.5h4.4v1.9h-4.4v2.7H225.2z"/>
		<path class="st8" d="M231.4,96.7h2l3.6,6.3l3.4-6.3h2l0.7,11.1h-2.2l-0.4-7h0l-2.9,5.5h-1.1l-3-5.5h-0.1l-0.4,7h-2.2L231.4,96.7z"
			/>
		<path class="st8" d="M249.1,96.7h2.4v11.1h-2.4V96.7z"/>
		<path class="st8" d="M267.3,107.7L267.3,107.7l-2.8,0.1l-2.8-4.1l-2.6,4.1h-2.5l0-0.1l3.7-5.6l-3.6-5.3l0-0.1h2.8l2.5,3.7l2.4-3.7
			h2.6l0,0.1l-3.5,5.2L267.3,107.7z"/>
		<path class="st8" d="M279.7,105.8v2h-7.2V96.7h7.1v2h-4.7v2.5h4.4v1.9h-4.4v2.7H279.7z"/>
		<path class="st8" d="M285,107.2V105l0,0c0.9,0.6,1.8,1,3,1c1.1,0,1.8-0.5,1.8-1.3c0-0.7-0.4-1.2-2-1.8c-1.4-0.6-2.8-1.4-2.8-3.2
			c0-2.2,1.8-3.2,3.8-3.2c1.4,0,2.2,0.2,2.9,0.5V99l0,0c-0.7-0.4-1.6-0.6-2.5-0.6c-1.1,0-1.8,0.3-1.8,1c0,0.7,0.8,1,2,1.6
			c1.5,0.7,2.7,1.6,2.7,3.5c0,2.1-1.6,3.4-3.9,3.4C286.7,108,285.8,107.7,285,107.2z"/>
	</g>
</g>
</svg>
