<?xml version="1.0" encoding="utf-8"?>
<!-- Generator: Adobe Illustrator 22.0.1, SVG Export Plug-In . SVG Version: 6.00 Build 0)  -->
<svg version="1.1" id="レイヤー_1" xmlns="http://www.w3.org/2000/svg" xmlns:xlink="http://www.w3.org/1999/xlink" x="0px"
	 y="0px" viewBox="0 0 128 24" style="enable-background:new 0 0 128 24;" xml:space="preserve">
<style type="text/css">
	.st0{fill:#231815;}
</style>
<g>
	<g>
		<g>
			<path class="st0" d="M25,15.1L25,9H29c1.1,0,2,0.3,2.6,0.8c0.6,0.5,0.9,1.3,0.9,2.2c0,0.6-0.1,1.1-0.4,1.5
				c-0.2,0.5-0.6,0.8-1,1.1c-0.3,0.2-0.6,0.3-1,0.4c-0.4,0.1-0.9,0.1-1.5,0.1H25z M26.4,13.9l1.8,0c1,0,1.7-0.2,2.1-0.5
				c0.4-0.3,0.6-0.8,0.6-1.5c0-0.6-0.2-1.1-0.5-1.4C30.1,10.2,29.6,10,29,10h-2.5V13.9z"/>
			<path class="st0" d="M34.5,15.1v-5h1.2l0,5H34.5z"/>
			<path class="st0" d="M40.1,15.1l-3-5h1.4l2.1,3.6l2-3.6h1.3l-2.9,5H40.1z"/>
			<path class="st0" d="M113,15.1v-5h5.4l0,0.9h-4.2l0,1.1h2.4v0.9h-2.4v1.2h4.2l0,0.9H113z"/>
			<path class="st0" d="M120.5,15.1v-5l1,0l2.5,3l2.4-3l1,0l0,5h-1.1v-3.5l-2.2,2.9l-0.2,0l-2.3-2.8v3.4H120.5z"/>
			<path class="st0" d="M45.4,15.1v-5l5.4,0v0.9h-4.2V12H49v0.9h-2.4v1.2h4.2l0,0.9H45.4z"/>
			<path class="st0" d="M68.4,15.1v-5l5.4,0v0.9h-4.2l0,1.1H72l0,0.9h-2.4v1.2h4.2l0,0.9H68.4z"/>
			<path class="st0" d="M78.3,7l0,9.8l-0.9,0V7H78.3z"/>
			<path class="st0" d="M92.9,15.1l0-2.3l-2.7-2.8l1.7,0l1.8,1.9l1.8-1.9l1.4,0l-2.7,2.7v2.3H92.9z"/>
			<path class="st0" d="M109,11l0,4.1h-1.2V11h-2.4l0-0.9h6.1V11H109z"/>
			<path class="st0" d="M57.2,13.2L57.2,13.2c0.3,0,0.6-0.1,0.8-0.2c0.2-0.2,0.3-0.4,0.3-0.7V11c0-0.3-0.1-0.6-0.3-0.7
				c-0.2-0.2-0.5-0.2-0.9-0.2h-4.5v5h1.2l0-1.9h0.1h1h0.9l1.1,1.9h1.4L57.2,13.2z M53.8,12.3l0-1.4h2.8c0.2,0,0.4,0,0.4,0.1
				c0.1,0.1,0.1,0.2,0.1,0.3l0,0.6c0,0.2,0,0.3-0.1,0.3c-0.1,0.1-0.2,0.1-0.4,0.1L53.8,12.3z"/>
			<path class="st0" d="M64.8,12h-2.7c-0.2,0-0.4,0-0.4-0.1c-0.1-0.1-0.1-0.2-0.1-0.3l0-0.2c0-0.1,0-0.3,0.1-0.3
				c0.1-0.1,0.2-0.1,0.4-0.1h2.4c0.2,0,0.4,0,0.4,0.1c0.1,0,0.1,0.1,0.1,0.2h1.1v-0.1c0-0.4-0.1-0.7-0.3-0.9c-0.2-0.2-0.5-0.2-1-0.2
				h-3c-0.5,0-0.9,0.1-1,0.3c-0.2,0.2-0.3,0.5-0.3,0.9v0.6c0,0.5,0.1,0.8,0.3,0.9c0.2,0.2,0.5,0.3,1,0.3h2.7c0.2,0,0.4,0,0.4,0.1
				c0.1,0.1,0.1,0.2,0.1,0.3l0,0.3c0,0.1,0,0.3-0.1,0.3c-0.1,0.1-0.2,0.1-0.4,0.1h-2.3c-0.2,0-0.4,0-0.4-0.1
				c-0.1-0.1-0.1-0.2-0.1-0.3l-1.1,0v0.1c0,0.5,0.1,0.8,0.3,0.9c0.2,0.2,0.5,0.2,1.1,0.2h3c0.5,0,0.9-0.1,1-0.2
				c0.2-0.2,0.3-0.5,0.3-0.9l0-0.7c0-0.5-0.1-0.8-0.3-0.9C65.6,12.1,65.3,12,64.8,12z"/>
			<path class="st0" d="M102.6,12h-2.7c-0.2,0-0.4,0-0.4-0.1c-0.1-0.1-0.1-0.2-0.1-0.3v-0.2c0-0.1,0-0.3,0.1-0.3
				c0.1-0.1,0.2-0.1,0.4-0.1h2.4c0.2,0,0.4,0,0.4,0.1c0.1,0,0.1,0.1,0.1,0.2h1.1v-0.1c0-0.4-0.1-0.7-0.3-0.9c-0.2-0.2-0.5-0.2-1-0.2
				h-3c-0.5,0-0.9,0.1-1,0.3c-0.2,0.2-0.3,0.5-0.3,0.9v0.6c0,0.5,0.1,0.8,0.3,0.9c0.2,0.2,0.5,0.3,1,0.3h2.7c0.2,0,0.4,0,0.4,0.1
				c0.1,0.1,0.1,0.2,0.1,0.3l0,0.3c0,0.1,0,0.3-0.1,0.3c-0.1,0.1-0.2,0.1-0.4,0.1h-2.3c-0.2,0-0.4,0-0.4-0.1
				c-0.1-0.1-0.1-0.2-0.1-0.3h-1.1v0.1c0,0.5,0.1,0.8,0.3,0.9c0.2,0.2,0.5,0.2,1.1,0.2h3c0.5,0,0.9-0.1,1-0.2
				c0.2-0.2,0.3-0.5,0.3-0.9l0-0.7c0-0.5-0.1-0.8-0.3-0.9C103.4,12.1,103.1,12,102.6,12z"/>
			<path class="st0" d="M87.1,11.3h-3.3c-0.3,0-0.4,0-0.5-0.1c-0.1-0.1-0.1-0.2-0.1-0.4v-0.3c0-0.2,0.1-0.3,0.1-0.4
				c0.1-0.1,0.3-0.1,0.5-0.1h2.9c0.3,0,0.4,0,0.5,0.1c0.1,0.1,0.1,0.1,0.1,0.3h1.3l0-0.1c0-0.5-0.1-0.8-0.3-1C88.2,9,87.7,9,87.1,9
				h-3.7c-0.6,0-1,0.1-1.3,0.3c-0.2,0.2-0.3,0.6-0.3,1.1l0,0.7c0,0.6,0.1,0.9,0.3,1.1c0.2,0.2,0.6,0.3,1.3,0.3h3.3
				c0.3,0,0.4,0,0.5,0.1c0.1,0.1,0.1,0.2,0.1,0.4l0,0.4c0,0.2,0,0.3-0.1,0.4c-0.1,0.1-0.3,0.1-0.5,0.1l-2.9,0c-0.3,0-0.4,0-0.5-0.1
				c-0.1-0.1-0.1-0.2-0.1-0.4l-1.3,0v0.2c0,0.6,0.1,0.9,0.3,1.1c0.2,0.2,0.7,0.3,1.3,0.3h3.7c0.6,0,1-0.1,1.3-0.3
				c0.2-0.2,0.3-0.6,0.3-1.1v-0.8c0-0.6-0.1-0.9-0.3-1.1C88.2,11.4,87.8,11.3,87.1,11.3z"/>
		</g>
		<g>
			<rect x="10.8" y="14.5" class="st0" width="0.9" height="6.9"/>
			<rect x="10.9" y="2.5" class="st0" width="0.6" height="6.9"/>
			<rect x="1.7" y="11.2" class="st0" width="6.9" height="1.5"/>
			<rect x="13.8" y="11.4" class="st0" width="6.9" height="1.1"/>
			<rect x="3.5" y="15.7" transform="matrix(0.7064 -0.7078 0.7078 0.7064 -9.416 9.6768)" class="st0" width="6.9" height="1"/>
			<rect x="12" y="7.1" transform="matrix(0.7068 -0.7074 0.7074 0.7068 -0.9098 13.1858)" class="st0" width="6.9" height="1.1"/>
			<rect x="6.8" y="4.2" transform="matrix(0.7077 -0.7065 0.7065 0.7077 -3.4016 7.1622)" class="st0" width="0.4" height="6.9"/>
			
				<rect x="14.9" y="12.7" transform="matrix(0.7063 -0.7079 0.7079 0.7063 -6.9208 15.6916)" class="st0" width="1.1" height="6.9"/>
			<polygon class="st0" points="14.6,20.8 15.1,20.6 12.4,14.2 11.9,14.4 			"/>
			<polygon class="st0" points="8,3 7.2,3.4 9.8,9.7 10.6,9.4 			"/>
			<polygon class="st0" points="2.4,15.4 2.5,15.7 8.9,13.1 8.8,12.8 			"/>
			<rect x="13.3" y="9.3" transform="matrix(0.9237 -0.3831 0.3831 0.9237 -2.4153 7.1542)" class="st0" width="6.9" height="0.6"/>
			<polygon class="st0" points="7.5,20.6 7.7,20.7 10.3,14.4 10.1,14.3 			"/>
			<polygon class="st0" points="15,3.3 14.7,3.1 12,9.5 12.3,9.6 			"/>
			<rect x="5.6" y="6.2" transform="matrix(0.3817 -0.9243 0.9243 0.3817 -5.4153 11.1849)" class="st0" width="0.2" height="6.9"/>
			
				<rect x="16.6" y="10.8" transform="matrix(0.3829 -0.9238 0.9238 0.3829 -2.8144 24.266)" class="st0" width="0.2" height="6.9"/>
		</g>
		<g>
			<path class="st0" d="M25.5,20.5l-0.7-1.7h0.4l0.5,1.2l0.5-1.2h0.3L27,20l0.4-1.2h0.4l-0.7,1.7h-0.3l-0.5-1.2l-0.5,1.2H25.5z"/>
			<path class="st0" d="M29,20.5v-1.7h1.9v0.3h-1.4v0.4h0.8v0.3h-0.8v0.4h1.5v0.3H29z"/>
			<path class="st0" d="M32.7,19.9c0.1,0,0.1,0.1,0.1,0.2v0.4l-0.4,0.6h-0.2l0.3-0.6h-0.2c-0.1,0-0.1-0.1-0.1-0.2v-0.3
				c0-0.1,0-0.1,0-0.1c0,0,0.1,0,0.1,0H32.7z"/>
			<path class="st0" d="M36.7,20.5v-1.7h0.4v1.7H36.7z"/>
			<path class="st0" d="M38.6,20.5v-1.7h0.3l1.5,1.2v-1.2h0.4v1.7h-0.3L39,19.4v1.2H38.6z"/>
			<path class="st0" d="M44.5,19.2c0-0.2,0-0.3,0.1-0.3c0.1-0.1,0.2-0.1,0.4-0.1h1.3c0.2,0,0.3,0,0.4,0.1c0.1,0.1,0.1,0.2,0.1,0.3
				v0.9c0,0.2,0,0.3-0.1,0.3c-0.1,0.1-0.2,0.1-0.4,0.1H45c-0.2,0-0.3,0-0.4-0.1c-0.1-0.1-0.1-0.2-0.1-0.3V19.2z M44.9,20.2h1.4v-1.1
				h-1.4V20.2z"/>
			<path class="st0" d="M48.7,18.8v1.4h1.2v-1.4h0.4v1.3c0,0.2,0,0.3-0.1,0.3c-0.1,0.1-0.2,0.1-0.4,0.1h-1.1c-0.2,0-0.3,0-0.4-0.1
				c-0.1-0.1-0.1-0.2-0.1-0.3v-1.3H48.7z"/>
			<path class="st0" d="M57.5,20.5v-1.7h1.6c0.3,0,0.4,0.1,0.4,0.3v0.2c0,0.2-0.1,0.3-0.3,0.3c0.2,0,0.3,0.1,0.3,0.3v0.2
				c0,0.2-0.2,0.3-0.5,0.3H57.5z M58.9,19.1h-0.9v0.4h0.9c0.1,0,0.2,0,0.2-0.1v-0.2C59.1,19.1,59,19.1,58.9,19.1z M58.9,19.8h-0.9
				v0.4h0.9c0.1,0,0.1,0,0.1,0c0,0,0.1-0.1,0.1-0.1v-0.1c0-0.1,0-0.1-0.1-0.1C59,19.8,58.9,19.8,58.9,19.8z"/>
			<path class="st0" d="M60.9,20.5v-1.7h1.9v0.3h-1.4v0.4h0.8v0.3h-0.8v0.4h1.5v0.3H60.9z"/>
			<path class="st0" d="M64.2,20.5v-1.7h0.4v1.4H66v0.3H64.2z"/>
			<path class="st0" d="M67.2,20.5v-1.7h0.4v1.7H67.2z"/>
			<path class="st0" d="M69.1,20.5v-1.7H71v0.3h-1.4v0.4h0.8v0.3h-0.8v0.4H71v0.3H69.1z"/>
			<path class="st0" d="M72.3,20.5v-1.7h1.8v0.3h-1.4v0.5h0.8v0.3h-0.8v0.6H72.3z"/>
			<path class="st0" d="M75.8,19.9c0.1,0,0.1,0.1,0.1,0.2v0.4l-0.4,0.6h-0.2l0.3-0.6h-0.2c-0.1,0-0.1-0.1-0.1-0.2v-0.3
				c0-0.1,0-0.1,0-0.1c0,0,0.1,0,0.1,0H75.8z"/>
			<path class="st0" d="M84.2,19.1v1.4h-0.4v-1.4h-0.8v-0.3H85v0.3H84.2z"/>
			<path class="st0" d="M86.1,20.5l1-1.7h0.4l1,1.7h-0.5l-0.2-0.4h-1.1l-0.2,0.4H86.1z M86.9,19.9h0.8l-0.4-0.7L86.9,19.9z"/>
			<path class="st0" d="M89.7,20.5v-1.7H90l1.5,1.2v-1.2h0.4v1.7h-0.3l-1.5-1.2v1.2H89.7z"/>
			<path class="st0" d="M93.4,20.5v-1.7h1.2c0.3,0,0.6,0.1,0.8,0.2c0.2,0.2,0.3,0.4,0.3,0.6c0,0.6-0.4,0.9-1.1,0.9H93.4z M93.8,20.2
				h0.5c0.3,0,0.5,0,0.6-0.1c0.1-0.1,0.2-0.2,0.2-0.5c0-0.4-0.2-0.5-0.6-0.5h-0.7V20.2z"/>
			<path class="st0" d="M99.3,20.5v-1.7h0.4v0.7h1.3v-0.7h0.4v1.7H101v-0.7h-1.3v0.7H99.3z"/>
			<path class="st0" d="M102.9,20.5v-1.7h1.9v0.3h-1.4v0.4h0.8v0.3h-0.8v0.4h1.5v0.3H102.9z"/>
			<path class="st0" d="M109.6,20.5v-1.7h1.9v0.3H110v0.4h0.8v0.3H110v0.4h1.5v0.3H109.6z"/>
			<path class="st0" d="M113.3,19.9c0.1,0,0.1,0.1,0.1,0.2v0.3c0,0.1,0,0.1,0,0.1c0,0-0.1,0-0.1,0h-0.4c-0.1,0-0.1-0.1-0.1-0.2v-0.3
				c0-0.1,0-0.1,0-0.1c0,0,0.1,0,0.1,0H113.3z"/>
			<path class="st0" d="M53.4,19.9L53.4,19.9c0.1,0,0.2,0,0.3-0.1c0.1-0.1,0.1-0.1,0.1-0.3v-0.4c0-0.1,0-0.2-0.1-0.3
				c-0.1-0.1-0.2-0.1-0.3-0.1h-1.6v1.7h0.4l0-0.7l0,0l0.4,0h0.3l0.4,0.7l0.5,0L53.4,19.9z M52.2,19.6l0-0.5h1c0.1,0,0.1,0,0.2,0
				c0,0,0,0.1,0,0.1l0,0.2c0,0.1,0,0.1,0,0.1c0,0-0.1,0-0.1,0L52.2,19.6z"/>
			<path class="st0" d="M107.8,19.9L107.8,19.9c0.1,0,0.2,0,0.3-0.1c0.1-0.1,0.1-0.1,0.1-0.3v-0.4c0-0.1,0-0.2-0.1-0.3
				c-0.1-0.1-0.2-0.1-0.3-0.1h-1.6v1.7h0.4l0-0.7l0,0l0.4,0h0.3l0.4,0.7l0.5,0L107.8,19.9z M106.6,19.6l0-0.5h1c0.1,0,0.1,0,0.2,0
				c0,0,0,0.1,0,0.1l0,0.2c0,0.1,0,0.1,0,0.1c0,0-0.1,0-0.1,0L106.6,19.6z"/>
			<path class="st0" d="M81.2,19.5h-0.9c-0.1,0-0.1,0-0.2,0c0,0,0-0.1,0-0.1v-0.1c0-0.1,0-0.1,0-0.1c0,0,0.1,0,0.2,0h0.8
				c0.1,0,0.1,0,0.2,0c0,0,0,0,0,0.1h0.4v0c0-0.1,0-0.2-0.1-0.3c-0.1-0.1-0.2-0.1-0.4-0.1h-1c-0.2,0-0.3,0-0.4,0.1
				c-0.1,0.1-0.1,0.2-0.1,0.3v0.2c0,0.2,0,0.3,0.1,0.3c0.1,0.1,0.2,0.1,0.4,0.1h0.9c0.1,0,0.1,0,0.2,0c0,0,0,0.1,0,0.1l0,0.1
				c0,0.1,0,0.1,0,0.1c0,0-0.1,0-0.2,0h-0.8c-0.1,0-0.1,0-0.2,0c0,0,0-0.1,0-0.1h-0.4v0c0,0.2,0,0.3,0.1,0.3
				c0.1,0.1,0.2,0.1,0.4,0.1h1c0.2,0,0.3,0,0.4-0.1c0.1-0.1,0.1-0.2,0.1-0.3l0-0.2c0-0.2,0-0.3-0.1-0.3
				C81.5,19.5,81.4,19.5,81.2,19.5z"/>
		</g>
	</g>
</g>
</svg>
