<?xml version="1.0" encoding="utf-8"?>
<!-- Generator: Adobe Illustrator 22.0.1, SVG Export Plug-In . SVG Version: 6.00 Build 0)  -->
<svg version="1.1" id="レイヤー_1" xmlns="http://www.w3.org/2000/svg" xmlns:xlink="http://www.w3.org/1999/xlink" x="0px"
	 y="0px" viewBox="0 0 96 13.7" style="enable-background:new 0 0 96 13.7;" xml:space="preserve">
<style type="text/css">
	.st0{fill:#231815;}
</style>
<g>
	<g>
		<g>
			<path class="st0" d="M2,7.7l0-5.6h3.6c1,0,1.8,0.2,2.4,0.7c0.5,0.5,0.8,1.2,0.8,2c0,0.5-0.1,1-0.3,1.4C8.2,6.7,7.9,7,7.5,7.3
				C7.3,7.4,7,7.5,6.6,7.6C6.3,7.7,5.8,7.7,5.2,7.7H2z M3.3,6.7l1.7,0c0.9,0,1.5-0.1,1.9-0.4C7.2,6,7.4,5.5,7.4,4.9
				c0-0.6-0.2-1-0.5-1.3C6.6,3.3,6.2,3.1,5.6,3.1H3.3V6.7z"/>
			<path class="st0" d="M10.6,7.7V3.2h1.1l0,4.6H10.6z"/>
			<path class="st0" d="M15.7,7.7L13,3.2h1.3l1.9,3.3L18,3.1h1.2l-2.6,4.6H15.7z"/>
			<path class="st0" d="M82,7.7V3.2h4.9l0,0.8h-3.8l0,1h2.2v0.8h-2.2v1.1h3.8l0,0.8H82z"/>
			<path class="st0" d="M88.8,7.7V3.2l0.9,0l2.2,2.7l2.2-2.7l0.9,0l0,4.6h-1V4.6l-2,2.6l-0.2,0l-2.1-2.5v3.1H88.8z"/>
			<path class="st0" d="M20.5,7.7V3.2l4.9,0V4h-3.8v1h2.2v0.8h-2.2v1.1h3.8l0,0.8H20.5z"/>
			<path class="st0" d="M41.4,7.7V3.2l4.9,0V4h-3.8l0,1h2.2l0,0.8h-2.2v1.1h3.8l0,0.8H41.4z"/>
			<path class="st0" d="M50.4,0.4l0,8.9l-0.8,0V0.4H50.4z"/>
			<path class="st0" d="M63.7,7.7l0-2.1l-2.5-2.5l1.5,0l1.6,1.7L66,3.2l1.3,0l-2.5,2.5v2.1H63.7z"/>
			<path class="st0" d="M78.3,4l0,3.7h-1.1V4H75l0-0.8h5.5V4H78.3z"/>
			<path class="st0" d="M31.2,6L31.2,6c0.3,0,0.6-0.1,0.7-0.2c0.2-0.1,0.3-0.4,0.3-0.7V4c0-0.3-0.1-0.5-0.3-0.7
				c-0.2-0.1-0.4-0.2-0.8-0.2H27v4.6h1.1l0-1.7h0.1h0.9H30l1,1.7h1.3L31.2,6z M28.1,5.2l0-1.3h2.5c0.2,0,0.3,0,0.4,0.1
				c0.1,0.1,0.1,0.2,0.1,0.3l0,0.5c0,0.1,0,0.2-0.1,0.3c-0.1,0.1-0.2,0.1-0.4,0.1L28.1,5.2z"/>
			<path class="st0" d="M38.1,4.9h-2.5c-0.2,0-0.3,0-0.4-0.1c-0.1-0.1-0.1-0.2-0.1-0.3l0-0.2c0-0.1,0-0.2,0.1-0.3
				C35.3,4,35.5,4,35.7,4h2.2c0.2,0,0.3,0,0.4,0.1c0.1,0,0.1,0.1,0.1,0.2h1V4.1c0-0.4-0.1-0.6-0.3-0.8c-0.2-0.1-0.5-0.2-0.9-0.2
				h-2.8c-0.5,0-0.8,0.1-0.9,0.2c-0.2,0.2-0.2,0.4-0.2,0.8v0.5c0,0.4,0.1,0.7,0.2,0.9c0.2,0.2,0.5,0.2,0.9,0.2h2.4
				c0.2,0,0.3,0,0.4,0.1c0.1,0.1,0.1,0.2,0.1,0.3l0,0.3c0,0.1,0,0.2-0.1,0.3c-0.1,0.1-0.2,0.1-0.4,0.1h-2.1c-0.2,0-0.3,0-0.4-0.1
				c-0.1-0.1-0.1-0.1-0.1-0.3l-1,0v0.1c0,0.4,0.1,0.7,0.3,0.8c0.2,0.2,0.5,0.2,1,0.2h2.8c0.5,0,0.8-0.1,0.9-0.2
				c0.2-0.2,0.2-0.4,0.2-0.8l0-0.6c0-0.4-0.1-0.7-0.2-0.9C38.9,5,38.6,4.9,38.1,4.9z"/>
			<path class="st0" d="M72.5,4.9H70c-0.2,0-0.3,0-0.4-0.1c-0.1-0.1-0.1-0.2-0.1-0.3V4.3c0-0.1,0-0.2,0.1-0.3C69.7,4,69.8,4,70,4
				h2.2c0.2,0,0.3,0,0.4,0.1c0.1,0,0.1,0.1,0.1,0.2h1V4.1c0-0.4-0.1-0.6-0.3-0.8c-0.2-0.1-0.5-0.2-1-0.2h-2.8
				c-0.5,0-0.8,0.1-0.9,0.2c-0.2,0.2-0.2,0.4-0.2,0.8v0.5c0,0.4,0.1,0.7,0.2,0.9c0.2,0.2,0.5,0.2,0.9,0.2h2.4c0.2,0,0.3,0,0.4,0.1
				c0.1,0.1,0.1,0.2,0.1,0.3l0,0.3c0,0.1,0,0.2-0.1,0.3c-0.1,0.1-0.2,0.1-0.4,0.1H70c-0.2,0-0.3,0-0.4-0.1c-0.1-0.1-0.1-0.1-0.1-0.3
				h-1v0.1c0,0.4,0.1,0.7,0.3,0.8c0.2,0.1,0.5,0.2,1,0.2h2.8c0.5,0,0.8-0.1,0.9-0.2c0.2-0.2,0.2-0.4,0.2-0.9l0-0.6
				c0-0.4-0.1-0.7-0.2-0.9C73.3,5,73,4.9,72.5,4.9z"/>
			<path class="st0" d="M58.5,4.3h-3c-0.2,0-0.4,0-0.5-0.1c-0.1-0.1-0.1-0.2-0.1-0.4V3.6c0-0.2,0-0.3,0.1-0.4
				c0.1-0.1,0.3-0.1,0.5-0.1h2.7c0.2,0,0.4,0,0.5,0.1c0.1,0.1,0.1,0.1,0.1,0.2h1.2l0-0.1c0-0.5-0.1-0.8-0.3-0.9
				c-0.2-0.2-0.6-0.3-1.2-0.3h-3.4c-0.6,0-1,0.1-1.2,0.3c-0.2,0.2-0.3,0.5-0.3,1l0,0.6c0,0.5,0.1,0.9,0.3,1c0.2,0.2,0.6,0.3,1.2,0.3
				h3c0.2,0,0.4,0,0.5,0.1c0.1,0.1,0.1,0.2,0.1,0.4l0,0.4c0,0.2,0,0.3-0.1,0.4c-0.1,0.1-0.3,0.1-0.5,0.1l-2.6,0
				c-0.2,0-0.4,0-0.5-0.1c-0.1-0.1-0.1-0.2-0.1-0.3l-1.2,0v0.2c0,0.5,0.1,0.9,0.3,1c0.2,0.2,0.6,0.3,1.2,0.3h3.4
				c0.6,0,0.9-0.1,1.1-0.3c0.2-0.2,0.3-0.5,0.3-1V5.6c0-0.5-0.1-0.9-0.3-1C59.4,4.4,59,4.3,58.5,4.3z"/>
		</g>
		<g>
			<path class="st0" d="M2.4,12.7l-0.6-1.6h0.4l0.4,1.1l0.4-1.1h0.3l0.4,1.1l0.4-1.1h0.3l-0.6,1.6H3.6l-0.5-1.1l-0.5,1.1H2.4z"/>
			<path class="st0" d="M5.6,12.7v-1.6h1.7v0.3H6v0.3h0.8V12H6v0.4h1.3v0.3H5.6z"/>
			<path class="st0" d="M9,12.1c0.1,0,0.1,0,0.1,0.1v0.4l-0.4,0.5H8.5l0.3-0.6H8.6c-0.1,0-0.1,0-0.1-0.1v-0.2c0-0.1,0-0.1,0-0.1
				c0,0,0.1,0,0.1,0H9z"/>
			<path class="st0" d="M12.6,12.7v-1.6H13v1.6H12.6z"/>
			<path class="st0" d="M14.3,12.7v-1.6h0.3l1.3,1v-1h0.3v1.6H16l-1.3-1.1v1.1H14.3z"/>
			<path class="st0" d="M19.7,11.5c0-0.1,0-0.2,0.1-0.3c0.1,0,0.2-0.1,0.3-0.1h1.2c0.2,0,0.3,0,0.3,0.1c0.1,0,0.1,0.1,0.1,0.3v0.8
				c0,0.1,0,0.2-0.1,0.3c-0.1,0.1-0.2,0.1-0.3,0.1h-1.2c-0.2,0-0.3,0-0.3-0.1c-0.1-0.1-0.1-0.1-0.1-0.3V11.5z M20.1,12.4h1.3v-1
				h-1.3V12.4z"/>
			<path class="st0" d="M23.5,11.1v1.3h1.1v-1.3H25v1.2c0,0.1,0,0.2-0.1,0.3c-0.1,0.1-0.2,0.1-0.3,0.1h-1c-0.2,0-0.3,0-0.3-0.1
				c-0.1-0.1-0.1-0.1-0.1-0.3v-1.2H23.5z"/>
			<path class="st0" d="M31.5,12.7v-1.6h1.4c0.2,0,0.4,0.1,0.4,0.3v0.2c0,0.1-0.1,0.2-0.3,0.3c0.2,0,0.3,0.1,0.3,0.3v0.2
				c0,0.2-0.2,0.3-0.5,0.3H31.5z M32.8,11.4h-0.9v0.4h0.9c0.1,0,0.2,0,0.2-0.1v-0.2C32.9,11.4,32.9,11.4,32.8,11.4z M32.8,12h-0.9
				v0.4h0.9c0.1,0,0.1,0,0.1,0c0,0,0.1-0.1,0.1-0.1v-0.1c0-0.1,0-0.1-0.1-0.1C32.9,12,32.8,12,32.8,12z"/>
			<path class="st0" d="M34.7,12.7v-1.6h1.7v0.3H35v0.3h0.8V12H35v0.4h1.3v0.3H34.7z"/>
			<path class="st0" d="M37.6,12.7v-1.6H38v1.3h1.2v0.3H37.6z"/>
			<path class="st0" d="M40.3,12.7v-1.6h0.4v1.6H40.3z"/>
			<path class="st0" d="M42.1,12.7v-1.6h1.7v0.3h-1.3v0.3h0.8V12h-0.8v0.4h1.3v0.3H42.1z"/>
			<path class="st0" d="M45,12.7v-1.6h1.7v0.3h-1.3v0.4h0.7v0.3h-0.7v0.6H45z"/>
			<path class="st0" d="M48.2,12.1c0.1,0,0.1,0,0.1,0.1v0.4l-0.4,0.5h-0.2l0.3-0.6h-0.2c-0.1,0-0.1,0-0.1-0.1v-0.2
				c0-0.1,0-0.1,0-0.1c0,0,0.1,0,0.1,0H48.2z"/>
			<path class="st0" d="M55.8,11.4v1.3h-0.4v-1.3h-0.8v-0.3h1.9v0.3H55.8z"/>
			<path class="st0" d="M57.5,12.7l0.9-1.6h0.4l1,1.6h-0.4l-0.2-0.3h-1l-0.2,0.3H57.5z M58.2,12.1h0.7l-0.4-0.7L58.2,12.1z"/>
			<path class="st0" d="M60.8,12.7v-1.6h0.3l1.3,1v-1h0.3v1.6h-0.3l-1.3-1.1v1.1H60.8z"/>
			<path class="st0" d="M64.1,12.7v-1.6h1.1c0.3,0,0.5,0.1,0.7,0.2c0.2,0.1,0.2,0.3,0.2,0.6c0,0.5-0.3,0.8-1,0.8H64.1z M64.5,12.4
				H65c0.3,0,0.4,0,0.5-0.1c0.1-0.1,0.2-0.2,0.2-0.4c0-0.3-0.2-0.5-0.5-0.5h-0.7V12.4z"/>
			<path class="st0" d="M69.5,12.7v-1.6h0.4v0.6h1.2v-0.6h0.4v1.6h-0.4V12h-1.2v0.7H69.5z"/>
			<path class="st0" d="M72.8,12.7v-1.6h1.7v0.3h-1.3v0.3H74V12h-0.8v0.4h1.3v0.3H72.8z"/>
			<path class="st0" d="M78.9,12.7v-1.6h1.7v0.3h-1.3v0.3H80V12h-0.8v0.4h1.3v0.3H78.9z"/>
			<path class="st0" d="M82.3,12.1c0.1,0,0.1,0,0.1,0.1v0.3c0,0.1,0,0.1,0,0.1c0,0-0.1,0-0.1,0h-0.3c-0.1,0-0.1,0-0.1-0.1v-0.3
				c0-0.1,0-0.1,0-0.1c0,0,0.1,0,0.1,0H82.3z"/>
			<path class="st0" d="M27.8,12.1L27.8,12.1c0.1,0,0.2,0,0.3-0.1c0.1,0,0.1-0.1,0.1-0.2v-0.4c0-0.1,0-0.2-0.1-0.2
				c-0.1,0-0.2-0.1-0.3-0.1h-1.4v1.6h0.4l0-0.6l0,0l0.3,0h0.3l0.3,0.6l0.4,0L27.8,12.1z M26.7,11.8l0-0.4h0.9c0.1,0,0.1,0,0.1,0
				c0,0,0,0.1,0,0.1l0,0.2c0,0,0,0.1,0,0.1c0,0-0.1,0-0.1,0L26.7,11.8z"/>
			<path class="st0" d="M77.2,12.1L77.2,12.1c0.1,0,0.2,0,0.3-0.1c0.1,0,0.1-0.1,0.1-0.2v-0.4c0-0.1,0-0.2-0.1-0.2
				c-0.1,0-0.2-0.1-0.3-0.1h-1.4v1.6h0.4l0-0.6l0,0l0.3,0h0.3l0.3,0.6l0.4,0L77.2,12.1z M76.1,11.8l0-0.4H77c0.1,0,0.1,0,0.1,0
				c0,0,0,0.1,0,0.1l0,0.2c0,0,0,0.1,0,0.1c0,0-0.1,0-0.1,0L76.1,11.8z"/>
			<path class="st0" d="M53.1,11.7h-0.8c-0.1,0-0.1,0-0.1,0c0,0,0-0.1,0-0.1v-0.1c0,0,0-0.1,0-0.1c0,0,0.1,0,0.1,0H53
				c0.1,0,0.1,0,0.1,0c0,0,0,0,0,0.1h0.3v0c0-0.1,0-0.2-0.1-0.3c-0.1,0-0.2-0.1-0.3-0.1h-1c-0.2,0-0.3,0-0.3,0.1
				c-0.1,0.1-0.1,0.2-0.1,0.3v0.2c0,0.1,0,0.2,0.1,0.3C51.9,12,52,12,52.1,12H53c0.1,0,0.1,0,0.1,0c0,0,0,0.1,0,0.1l0,0.1
				c0,0,0,0.1,0,0.1c0,0-0.1,0-0.1,0h-0.7c-0.1,0-0.1,0-0.1,0c0,0,0,0,0-0.1h-0.3v0c0,0.1,0,0.2,0.1,0.3c0.1,0.1,0.2,0.1,0.3,0.1h1
				c0.2,0,0.3,0,0.3-0.1c0.1-0.1,0.1-0.2,0.1-0.3l0-0.2c0-0.1,0-0.2-0.1-0.3C53.4,11.8,53.3,11.7,53.1,11.7z"/>
		</g>
	</g>
</g>
</svg>
